<?xml version="1.0" encoding="utf-8"?>
<!-- Generator: Adobe Illustrator 26.4.1, SVG Export Plug-In . SVG Version: 6.00 Build 0)  -->
<svg version="1.1" id="Capa_1" xmlns="http://www.w3.org/2000/svg" xmlns:xlink="http://www.w3.org/1999/xlink" x="0px" y="0px"
	 viewBox="0 0 1101.82 280" style="enable-background:new 0 0 1101.82 280;" xml:space="preserve">
<style type="text/css">
	.st0{fill:#FFFFFF;}
	.st1{fill:#5AC8FA;}
</style>
<g>
	<g>
		<path class="st0" d="M352.81,52.07v151.64h-37.97V52.07h-51.99V15.88H404.8v36.19H352.81z"/>
		<path class="st0" d="M485.59,191.99c-7.39,9.94-19.37,15.04-35.43,15.04c-14.53,0-27.27-4.08-37.72-11.98
			c-10.45-7.9-15.55-21.66-15.55-40.78V76.79h36.45v69.83c0,10.96,2.55,18.61,7.65,22.43c5.35,3.82,10.96,5.61,17.08,5.61
			c6.37,0,12.49-2.04,18.1-6.12c5.86-4.08,8.67-11.47,8.67-21.92V76.79h36.19v103.47c0,6.37,1.02,17.59,2.8,23.45h-35.94
			C486.87,200.66,486.1,196.84,485.59,191.99z"/>
		<path class="st0" d="M595.18,106.87v96.85h-35.94v-96.85h-24.21V76.79h24.21V37.54h35.94v39.25h23.96v30.07H595.18z"/>
		<path class="st0" d="M758.56,140c0,39.5-26.76,66.77-66.77,66.77c-40.52,0-67.03-27.27-67.03-66.77s26.51-66.77,67.03-66.77
			C731.79,73.23,758.56,100.5,758.56,140z M721.85,139.74c0-20.39-11.98-34.15-30.07-34.15c-18.61,0-30.58,13.76-30.58,34.15
			c0,20.64,12.23,34.66,30.58,34.66C709.87,174.41,721.85,160.39,721.85,139.74z"/>
		<path class="st0" d="M858.46,76.79v33.39c-4.84-1.27-9.43-1.78-14.27-1.78c-21.16,0-33.64,14.02-33.64,37.72v57.6h-36.96V77.05
			h33.9l2.04,14.27c5.1-10.96,18.35-16.31,33.9-16.31C847.76,75.01,852.85,75.52,858.46,76.79z"/>
		<path class="st1" d="M907.4,12.57v191.15h-36.45V12.57H907.4z"/>
		<path class="st1" d="M995.83,233.79c-8.41,22.43-23.19,33.64-44.09,33.64c-8.92,0-19.11-2.04-31.09-6.12l9.94-32.88
			c6.37,3.82,12.49,5.61,17.84,5.61c8.92,0,14.78-4.33,17.84-13.25l3.57-9.94L915.8,76.79h38.23l33.13,87.67l32.11-87.67h38.23
			L995.83,233.79z"/>
		<path class="st1" d="M1068.72,163.96c12.23,0,22.43,9.94,22.43,22.17c0,11.98-10.45,21.92-22.43,21.92
			c-12.49,0-22.43-9.94-22.43-21.92C1046.3,173.9,1056.24,163.96,1068.72,163.96z"/>
	</g>
	<g>
		<path class="st0" d="M29.5,190.16c-0.53-0.53-0.59-0.94-0.59-1.21V54.61H10.67v134.34c0,5.57,1.96,10.35,5.82,14.21
			c3.86,3.86,8.65,5.82,14.21,5.82h134.34v-18.24H30.7C30.44,190.75,30.02,190.69,29.5,190.16z"/>
		<path class="st0" d="M198.52,21.14c-3.86-3.86-8.65-5.82-14.21-5.82H66.82c-5.57,0-10.35,1.96-14.21,5.82s-5.82,8.65-5.82,14.21
			v117.48c0,5.57,1.96,10.35,5.82,14.21c3.86,3.86,8.65,5.82,14.21,5.82H184.3c5.57,0,10.35-1.96,14.21-5.82
			c3.86-3.86,5.82-8.65,5.82-14.21V35.35C204.34,29.78,202.38,25,198.52,21.14z M65.03,35.35c0-0.27,0.06-0.68,0.59-1.21
			c0.53-0.53,0.94-0.59,1.21-0.59h52.2v68.73l24.6-14.72l24.6,14.72V33.56h16.08c0.27,0,0.68,0.06,1.21,0.59s0.59,0.94,0.59,1.21
			v117.48c0,0.27-0.06,0.68-0.59,1.21c-0.53,0.53-0.94,0.59-1.21,0.59H66.82c-0.27,0-0.68-0.06-1.21-0.59
			c-0.53-0.53-0.59-0.94-0.59-1.21V35.35z"/>
	</g>
</g>
</svg>
